<svg width="18" height="18" viewBox="0 0 18 18" fill="none" xmlns="http://www.w3.org/2000/svg">
<path d="M13.4174 7.01852L14.9174 4.45836C14.9576 4.38792 14.9681 4.30468 14.9465 4.22668C14.925 4.14867 14.8732 4.08217 14.8023 4.04158C14.7314 4.00098 14.6472 3.98955 14.5678 4.00977C14.4884 4.02999 14.4204 4.08022 14.3783 4.1496L12.8609 6.73978C11.6496 6.20269 10.3367 5.92499 9.0087 5.92499C7.68068 5.92499 6.36776 6.20269 5.15652 6.73978L3.63913 4.1496C3.59704 4.08022 3.52894 4.02999 3.44958 4.00977C3.37022 3.98955 3.28597 4.00098 3.21509 4.04158C3.1442 4.08217 3.09238 4.14867 3.07084 4.22668C3.0493 4.30468 3.05978 4.38792 3.1 4.45836L4.6 7.01852C2.01304 8.39938 0.256522 10.9681 0 14H18C17.7435 10.9681 15.9826 8.39938 13.4174 7.01852ZM4.86087 11.4699C4.71296 11.4699 4.56838 11.4266 4.4454 11.3455C4.32242 11.2645 4.22657 11.1493 4.16997 11.0145C4.11337 10.8797 4.09856 10.7314 4.12741 10.5884C4.15627 10.4453 4.22749 10.3138 4.33208 10.2107C4.43666 10.1075 4.56991 10.0373 4.71498 10.0088C4.86004 9.98037 5.0104 9.99498 5.14705 10.0508C5.2837 10.1066 5.40049 10.2012 5.48266 10.3225C5.56484 10.4438 5.6087 10.5864 5.6087 10.7323C5.6087 10.9279 5.52991 11.1155 5.38966 11.2538C5.24942 11.3921 5.05921 11.4699 4.86087 11.4699ZM13.1478 11.4699C12.9999 11.4699 12.8553 11.4266 12.7324 11.3455C12.6094 11.2645 12.5135 11.1493 12.4569 11.0145C12.4003 10.8797 12.3855 10.7314 12.4144 10.5884C12.4432 10.4453 12.5144 10.3138 12.619 10.2107C12.7236 10.1075 12.8569 10.0373 13.0019 10.0088C13.147 9.98037 13.2974 9.99498 13.434 10.0508C13.5707 10.1066 13.6874 10.2012 13.7696 10.3225C13.8518 10.4438 13.8957 10.5864 13.8957 10.7323C13.8957 10.9279 13.8169 11.1155 13.6766 11.2538C13.5364 11.3921 13.3462 11.4699 13.1478 11.4699Z" fill="#71D88D"/>
</svg>
