<svg width="18" height="18" viewBox="0 0 18 18" fill="none" xmlns="http://www.w3.org/2000/svg">
<path d="M16.7964 13.5C16.922 13.2826 17 13.0376 17 12.8176V5.18226C17 4.9623 16.9221 4.7174 16.7965 4.5L9 8.99998L16.7964 13.5Z" fill="#00599C"/>
<path d="M9.69238 17.835L16.3068 14.0173C16.4973 13.9073 16.6705 13.7174 16.796 13.5L8.99957 9L1.20312 13.5C1.32867 13.7174 1.5019 13.9074 1.69238 14.0173L8.30676 17.835C8.68778 18.0549 9.31136 18.0549 9.69238 17.835Z" fill="#004482"/>
<path d="M16.7965 4.49998C16.6709 4.28252 16.4977 4.09262 16.3072 3.98264L9.69281 0.164972C9.31179 -0.0549906 8.68821 -0.0549906 8.30719 0.164972L1.69281 3.98264C1.31174 4.20255 1 4.74242 1 5.18229V12.8177C1 13.0376 1.07796 13.2826 1.20356 13.5L9 9L16.7965 4.49998Z" fill="#659AD2"/>
<path d="M8.98958 14.3276C6.04877 14.3276 3.65625 11.9358 3.65625 8.99585C3.65625 6.05589 6.04877 3.66406 8.98958 3.66406C10.8872 3.66406 12.657 4.68494 13.6082 6.32828L11.3001 7.66353C10.824 6.84097 9.9386 6.32996 8.98958 6.32996C7.51915 6.32996 6.32292 7.52585 6.32292 8.99585C6.32292 10.4658 7.51915 11.6617 8.98958 11.6617C9.93871 11.6617 10.8241 11.1507 11.3002 10.328L13.6084 11.6632C12.6571 13.3067 10.8873 14.3276 8.98958 14.3276Z" fill="white"/>
<path d="M14.3247 8.70959H13.732V8.11719H13.1395V8.70959H12.5469V9.30199H13.1395V9.89445H13.732V9.30199H14.3247V8.70959Z" fill="white"/>
<path d="M16.5512 8.70959H15.9586V8.11719H15.3661V8.70959H14.7734V9.30199H15.3661V9.89445H15.9586V9.30199H16.5512V8.70959Z" fill="white"/>
</svg>
