<svg width="18" height="18" viewBox="0 0 18 18" fill="none" xmlns="http://www.w3.org/2000/svg">
<g clip-path="url(#clip0_2150_148)">
<path d="M16.5799 13.9218C15.6005 13.8969 14.8415 13.9967 14.2049 14.271C14.0212 14.3458 13.7274 14.3459 13.7029 14.5828C13.8008 14.6826 13.8131 14.8448 13.8988 14.9819C14.0459 15.2313 14.3028 15.5681 14.5354 15.7428C14.7924 15.9423 15.0496 16.1417 15.3188 16.3164C15.7964 16.6157 16.3351 16.7903 16.8003 17.0896C17.0697 17.2641 17.3388 17.4888 17.6082 17.6758C17.7429 17.7754 17.8285 17.9377 18 18V17.9627C17.9142 17.8503 17.8897 17.6882 17.8041 17.5635C17.6818 17.4388 17.5592 17.3265 17.4368 17.2018C17.0818 16.7155 16.6411 16.2914 16.1637 15.9423C15.7719 15.6678 14.9149 15.2937 14.7558 14.8322C14.7558 14.8322 14.7435 14.8198 14.7313 14.8074C15.0006 14.7824 15.3188 14.6826 15.576 14.6078C15.9922 14.4955 16.3717 14.5205 16.8003 14.4082C16.9961 14.3583 17.192 14.296 17.3878 14.2336V14.1214C17.1676 13.8969 17.0084 13.5976 16.7758 13.3856C16.1514 12.8367 15.4658 12.3005 14.7558 11.8516C14.3762 11.6021 13.8865 11.44 13.4825 11.228C13.3357 11.1531 13.0908 11.1157 13.0051 10.991C12.7847 10.7167 12.6623 10.355 12.5032 10.0307C12.1482 9.34472 11.8053 8.58402 11.4992 7.86073C11.279 7.37429 11.1443 6.88784 10.875 6.43896C9.614 4.31878 8.24285 3.03421 6.13722 1.77452C5.6842 1.51266 5.14555 1.4004 4.57017 1.26327C4.26422 1.25073 3.95806 1.22585 3.65204 1.21331C3.45614 1.126 3.26024 0.889084 3.08883 0.776828C2.39115 0.327803 0.5914 -0.64487 0.077236 0.639698C-0.253343 1.45029 0.566983 2.24842 0.848447 2.6601C1.05673 2.9469 1.32595 3.27113 1.47287 3.59542C1.55858 3.80732 1.583 4.03197 1.6687 4.25641C1.86467 4.80501 2.04819 5.41625 2.30537 5.92764C2.44005 6.1895 2.58691 6.46384 2.75832 6.70082C2.85627 6.83795 3.02761 6.90039 3.06441 7.12483C2.89307 7.37429 2.88076 7.74848 2.78274 8.06023C2.34203 9.46952 2.51352 11.2155 3.1378 12.2506C3.33363 12.5623 3.79889 13.2485 4.42325 12.9865C4.97421 12.762 4.85178 12.0511 5.0108 11.4276C5.04767 11.2777 5.02319 11.1781 5.09658 11.0783V11.1033C5.26799 11.4524 5.43933 11.7893 5.5985 12.1384C5.97805 12.7495 6.63907 13.3856 7.18996 13.8097C7.48388 14.034 7.71644 14.4207 8.08375 14.5579V14.5204H8.05919C7.98573 14.4082 7.87554 14.3583 7.77766 14.271C7.55735 14.0466 7.3124 13.7722 7.14106 13.5227C6.62697 12.8242 6.17388 12.0511 5.76991 11.2529C5.57408 10.8663 5.4026 10.4423 5.2435 10.0557C5.16997 9.90586 5.16997 9.68149 5.0476 9.60673C4.86395 9.88106 4.59466 10.118 4.45998 10.4547C4.22749 10.991 4.20293 11.652 4.11723 12.3379C4.06825 12.3505 4.09267 12.3379 4.06818 12.363C3.67652 12.263 3.54184 11.8516 3.39485 11.5023C3.02754 10.6169 2.96632 9.19512 3.28473 8.17248C3.37043 7.91055 3.73774 7.08748 3.59082 6.83802C3.51736 6.60104 3.27241 6.46384 3.1378 6.27681C2.9787 6.03983 2.80722 5.74062 2.6971 5.47862C2.40325 4.78021 2.25633 4.00696 1.93806 3.30854C1.79114 2.98425 1.53416 2.64762 1.32595 2.34827C1.09339 2.01158 0.836273 1.77452 0.652618 1.37546C0.59147 1.23833 0.505694 1.01381 0.603643 0.864139C0.628131 0.764355 0.677035 0.727008 0.775055 0.702062C0.934223 0.564788 1.38724 0.739409 1.54627 0.814247C1.99928 1.0012 2.37876 1.17596 2.75832 1.43782C2.92966 1.56255 3.11331 1.79954 3.33363 1.8619H3.59075C3.98255 1.94914 4.42318 1.88685 4.79049 1.99903C5.4394 2.211 6.02696 2.52282 6.55343 2.85959C8.15721 3.8947 9.47925 5.36636 10.373 7.12483C10.52 7.41156 10.5811 7.67364 10.7158 7.97284C10.973 8.58402 11.2912 9.20759 11.5482 9.80622C11.8053 10.3923 12.0501 10.991 12.4174 11.4774C12.6011 11.7392 13.3356 11.8765 13.6662 12.0137C13.911 12.1259 14.2906 12.2258 14.5109 12.3629C14.9271 12.6247 15.3433 12.9242 15.7351 13.2109C15.931 13.3606 16.5431 13.6724 16.5799 13.9218Z" fill="white"/>
<path d="M4.0926 3.08396C3.88453 3.08396 3.73767 3.10905 3.59075 3.1464V3.17134H3.61523C3.71325 3.37091 3.88453 3.50811 4.00689 3.68266C4.10491 3.88216 4.19055 4.08179 4.28857 4.28136C4.30074 4.26882 4.31298 4.25641 4.31298 4.25641C4.48447 4.13161 4.5701 3.93212 4.5701 3.63277C4.49664 3.54553 4.48439 3.45822 4.42318 3.37091C4.34978 3.24611 4.19055 3.18382 4.0926 3.08396Z" fill="white"/>
</g>
<defs>
<clipPath id="clip0_2150_148">
<rect width="18" height="18" fill="white"/>
</clipPath>
</defs>
</svg>
